<?xml version="1.0" encoding="UTF-8" standalone="no"?>
<!-- Uploaded to: SVG Repo, www.svgrepo.com, Generator: SVG Repo Mixer Tools -->

<svg
   fill="#000000"
   height="800px"
   width="800px"
   version="1.1"
   id="Capa_1"
   viewBox="0 0 365.892 365.892"
   xml:space="preserve"
   sodipodi:docname="wifi_1_bar.svg"
   inkscape:version="1.2.2 (b0a8486541, 2022-12-01)"
   xmlns:inkscape="http://www.inkscape.org/namespaces/inkscape"
   xmlns:sodipodi="http://sodipodi.sourceforge.net/DTD/sodipodi-0.dtd"
   xmlns="http://www.w3.org/2000/svg"
   xmlns:svg="http://www.w3.org/2000/svg"><defs
   id="defs15">
	
	
	
	
</defs><sodipodi:namedview
   id="namedview13"
   pagecolor="#ffffff"
   bordercolor="#000000"
   borderopacity="0.25"
   inkscape:showpageshadow="2"
   inkscape:pageopacity="0.0"
   inkscape:pagecheckerboard="0"
   inkscape:deskcolor="#d1d1d1"
   showgrid="false"
   inkscape:zoom="0.90125"
   inkscape:cx="399.44521"
   inkscape:cy="401.10957"
   inkscape:window-width="1920"
   inkscape:window-height="1017"
   inkscape:window-x="0"
   inkscape:window-y="0"
   inkscape:window-maximized="1"
   inkscape:current-layer="Capa_1" />
<circle
   cx="182.94501"
   cy="286.681"
   r="41.493999"
   id="circle2" /><path
   d="m 182.946,176.029 c -35.658,0 -69.337,17.345 -90.09,46.398 -5.921,8.288 -4.001,19.806 4.286,25.726 3.249,2.321 6.994,3.438 10.704,3.438 5.754,0 11.423,-2.686 15.021,-7.724 13.846,-19.383 36.305,-30.954 60.078,-30.954 23.775,0 46.233,11.571 60.077,30.953 5.919,8.286 17.437,10.209 25.726,4.288 8.288,-5.92 10.208,-17.438 4.288,-25.726 -20.751,-29.055 -54.43,-46.399 -90.09,-46.399 z"
   id="path4" />
</svg>
