<?xml version="1.0" encoding="UTF-8" standalone="no"?>
<!-- Created with Inkscape (http://www.inkscape.org/) -->

<svg
   width="19.999998mm"
   height="13.320382mm"
   viewBox="0 0 19.999998 13.320382"
   version="1.1"
   id="svg1"
   xmlns="http://www.w3.org/2000/svg"
   xmlns:svg="http://www.w3.org/2000/svg">
  <defs
     id="defs1" />
  <g
     id="layer1"
     transform="translate(-106.69272,-24.282609)">
    <g
       id="g62"
       transform="matrix(0.33333333,0,0,0.33333333,63.963684,14.20581)">
      <g
         id="g59">
        <rect
           style="fill:#bababa;fill-opacity:1;stroke-width:0.264583"
           id="rect37"
           width="60"
           height="40"
           x="68.227272"
           y="30.161362" />
        <rect
           style="fill:#cecece;fill-opacity:1;stroke-width:0.251005"
           id="rect38"
           width="60"
           height="36"
           x="68.227272"
           y="32.161362" />
      </g>
      <rect
         x="88.227272"
         y="47.661362"
         width="20"
         height="5"
         ry="2.499953"
         opacity="0.5"
         id="rect58"
         style="stroke-width:9.44872" />
    </g>
    <g
       id="g129"
       transform="translate(-21.216276,0.43785864)">
      <path
         style="fill:#bababa;fill-opacity:1;stroke-width:0.264583"
         id="path38"
         width="60"
         height="40"
         x="129.95419"
         y="72.300003"
         d="m 129.95419,72.300003 h 40.22279 A 19.777212,19.777212 45 0 1 189.95419,92.077215 20.222788,20.222788 135 0 1 169.73141,112.3 h -39.77722 z"
         transform="matrix(0.33300958,0,0,0.33300958,84.652431,-0.23184387)" />
      <path
         style="fill:#cecece;fill-opacity:1;stroke-width:0.264583"
         id="path39"
         width="60"
         height="40"
         x="129.95419"
         y="72.300003"
         transform="matrix(0.32190926,0,0,0.29970862,86.075538,2.8418346)"
         d="m 129.95419,72.300003 h 40.15159 a 19.848414,19.848414 45 0 1 19.84841,19.848414 v 0.07306 A 20.078531,20.078531 135 0 1 169.87566,112.3 h -39.92147 z" />
      <path
         d="m 136.14851,27.174846 5.09059,5.090684 v -3.980447 c 0,-0.461245 -0.64881,-1.110028 -1.11005,-1.110028 z m -1.56961,1.569677 v 3.98045 c 0,0.461245 0.64877,1.110064 1.11001,1.110064 h 3.98042 z"
         opacity="0.5"
         id="path60"
         style="stroke-width:4.19535" />
    </g>
  </g>
</svg>
