<?xml version="1.0" encoding="UTF-8" standalone="no"?>
<!-- Created with Inkscape (http://www.inkscape.org/) -->

<svg
   width="19.999998mm"
   height="13.333335mm"
   viewBox="0 0 19.999998 13.333335"
   version="1.1"
   id="svg1"
   xmlns="http://www.w3.org/2000/svg"
   xmlns:svg="http://www.w3.org/2000/svg">
  <defs
     id="defs1" />
  <g
     id="layer1"
     transform="translate(-86.70611,-59.782143)">
    <g
       id="g126"
       transform="translate(40.691786,-0.62821286)">
      <path
         style="fill:#cecece;fill-opacity:1;stroke-width:0.264583"
         id="path46"
         width="60"
         height="40"
         x="10.587499"
         y="72.300003"
         d="M 30.508072,72.300003 H 70.587499 V 112.3 H 30.63827 A 20.050771,20.050771 45 0 1 10.587499,92.249232 v -0.02866 A 19.920573,19.920573 135 0 1 30.508072,72.300003 Z"
         transform="matrix(0.33333333,0,0,0.33333333,22.543418,36.31035)" />
      <path
         d="m 33.052928,64.057423 c -0.418236,0.41819 -0.418236,1.091523 0,1.509797 l 1.50981,1.50984 -1.50981,1.5098 c -0.418236,0.418233 -0.418236,1.091603 0,1.509756 0.418199,0.418314 1.091611,0.418314 1.50981,0 l 1.509847,-1.509756 1.509846,1.509756 c 0.418195,0.418314 1.091611,0.418314 1.509811,0 0.418235,-0.418153 0.418235,-1.091523 0,-1.509756 l -1.509811,-1.5098 1.509811,-1.50984 c 0.418235,-0.418274 0.418235,-1.091607 0,-1.509797 -0.4182,-0.418319 -1.091616,-0.418319 -1.509811,0 l -1.509846,1.509797 -1.509847,-1.509797 c -0.418199,-0.418319 -1.091611,-0.418319 -1.50981,0 z"
         enable-background="new"
         opacity="0.5"
         id="path56"
         style="stroke-width:4.03503" />
    </g>
    <g
       id="g83"
       transform="matrix(0.33333333,0,0,0.33333333,63.823694,40.908907)">
      <rect
         style="fill:#cecece;fill-opacity:1;stroke-width:0.264583"
         id="rect47"
         width="60"
         height="40"
         x="68.647247"
         y="56.619694" />
      <rect
         x="88.647247"
         y="74.119698"
         width="20"
         height="5"
         ry="2.499953"
         opacity="0.5"
         id="rect56"
         style="stroke-width:9.44872" />
    </g>
  </g>
</svg>
