<?xml version="1.0" encoding="UTF-8" standalone="no"?>
<!-- Created with Inkscape (http://www.inkscape.org/) -->

<svg
   width="19.980579mm"
   height="13.320392mm"
   viewBox="0 0 19.980579 13.320392"
   version="1.1"
   id="svg1"
   xmlns="http://www.w3.org/2000/svg"
   xmlns:svg="http://www.w3.org/2000/svg">
  <defs
     id="defs1" />
  <g
     id="layer1"
     transform="translate(-111.94564,-187.81687)">
    <g
       id="g114"
       transform="translate(-18.951239,-1.3108008)">
      <g
         id="g111"
         transform="translate(-16.83798,50.66893)">
        <path
           style="fill:#20a932;fill-opacity:1;stroke-width:0.264583"
           id="path110"
           width="60"
           height="40"
           x="129.95419"
           y="72.300003"
           d="m 129.95419,72.300003 h 39.66098 a 20.339024,20.339024 45 0 1 20.33902,20.339024 v 0.0051 A 19.655892,19.655892 135 0 1 170.2983,112.3 l -40.34411,0 z"
           transform="matrix(0.33300958,0,0,0.33300958,104.45888,114.38216)" />
        <path
           style="fill:#28d33f;fill-opacity:1;stroke-width:0.264583"
           id="path111"
           width="60"
           height="40"
           x="129.95419"
           y="72.300003"
           transform="matrix(0.32190926,0,0,0.29970862,105.90141,117.45583)"
           d="m 129.95419,72.300003 h 39.8043 A 20.195707,20.195707 45 0 1 189.95419,92.49571 19.804293,19.804293 135 0 1 170.1499,112.3 h -40.19571 z" />
      </g>
      <path
         d="m 139.12669,192.45778 5.09058,5.09068 v -3.98045 c 0,-0.46124 -0.6488,-1.11002 -1.11004,-1.11002 z m -1.56961,1.56967 v 3.98045 c 0,0.46125 0.64877,1.11007 1.11001,1.11007 h 3.98041 z"
         opacity="0.5"
         id="path43"
         style="stroke-width:4.19535" />
    </g>
  </g>
</svg>
