<?xml version="1.0" encoding="UTF-8" standalone="no"?>
<!-- Created with Inkscape (http://www.inkscape.org/) -->

<svg
   width="20.000002mm"
   height="13.333344mm"
   viewBox="0 0 20.000002 13.333344"
   version="1.1"
   id="svg1"
   xmlns="http://www.w3.org/2000/svg"
   xmlns:svg="http://www.w3.org/2000/svg">
  <defs
     id="defs1" />
  <g
     id="layer1"
     transform="translate(-53.981633,-187.0107)">
    <g
       id="g121"
       transform="translate(28.840503,0.5165354)">
      <g
         id="g116"
         transform="translate(-3.7417734,47.520522)">
        <path
           style="fill:#cb4e43;fill-opacity:1;stroke-width:0.264583"
           id="rect13"
           width="60"
           height="40"
           x="10.587499"
           y="72.300003"
           d="M 30.657454,72.300003 H 70.587499 V 112.3 H 30.517544 A 19.930045,19.930045 45 0 1 10.587499,92.369958 20.069955,20.069955 135 0 1 30.657454,72.300003 Z"
           transform="matrix(0.33333333,0,0,0.33333333,25.353738,114.87364)" />
        <path
           style="fill:#fe6254;fill-opacity:1;stroke-width:0.264583"
           id="path21"
           width="60"
           height="40"
           x="10.587499"
           y="72.300003"
           transform="matrix(0.32222222,0,0,0.3,26.138044,117.95031)"
           d="M 30.604418,72.300003 H 70.587499 V 112.3 H 30.57058 A 19.983081,19.983081 45 0 1 10.587499,92.316922 20.016919,20.016919 135 0 1 30.604418,72.300003 Z" />
      </g>
      <path
         d="m 32.121475,190.14124 c -0.418236,0.41819 -0.418236,1.09152 0,1.50979 l 1.50981,1.50984 -1.50981,1.5098 c -0.418236,0.41824 -0.418236,1.09161 0,1.50976 0.418199,0.41831 1.091611,0.41831 1.50981,0 l 1.509847,-1.50976 1.509846,1.50976 c 0.418195,0.41831 1.091611,0.41831 1.50981,0 0.418235,-0.41815 0.418235,-1.09152 0,-1.50976 l -1.50981,-1.5098 1.50981,-1.50984 c 0.418235,-0.41827 0.418235,-1.0916 0,-1.50979 -0.418199,-0.41832 -1.091615,-0.41832 -1.50981,0 l -1.509846,1.50979 -1.509847,-1.50979 c -0.418199,-0.41832 -1.091611,-0.41832 -1.50981,0 z"
         enable-background="new"
         opacity="0.5"
         id="path3"
         style="stroke-width:4.03503" />
    </g>
  </g>
</svg>
