<?xml version="1.0" encoding="UTF-8" standalone="no"?>
<!-- Created with Inkscape (http://www.inkscape.org/) -->

<svg
   width="20.000002mm"
   height="13.333331mm"
   viewBox="0 0 20.000002 13.333331"
   version="1.1"
   id="svg1"
   xmlns="http://www.w3.org/2000/svg"
   xmlns:svg="http://www.w3.org/2000/svg">
  <defs
     id="defs1" />
  <g
     id="layer1"
     transform="translate(-66.726053,-24.255587)">
    <g
       id="g130"
       transform="translate(40.391719,0.41715795)">
      <path
         style="fill:#bababa;fill-opacity:1;stroke-width:0.264583"
         id="path33"
         width="60"
         height="40"
         x="10.587499"
         y="72.300003"
         d="M 30.508072,72.300003 H 70.587499 V 112.3 H 30.568112 A 19.980613,19.980613 45 0 1 10.587499,92.31939 v -0.09881 A 19.920573,19.920573 135 0 1 30.508072,72.300003 Z"
         transform="matrix(0.33333333,0,0,0.33333333,22.805164,-0.26157419)" />
      <path
         style="fill:#cecece;fill-opacity:1;stroke-width:0.264583"
         id="path34"
         width="60"
         height="40"
         x="10.587499"
         y="72.300003"
         transform="matrix(0.32222222,0,0,0.3,23.58947,2.8150924)"
         d="M 30.566566,72.300003 H 70.587499 V 112.3 H 30.536587 A 19.949088,19.949088 45 0 1 10.587499,92.350915 V 92.27907 A 19.979067,19.979067 135 0 1 30.566566,72.300003 Z" />
      <path
         d="m 33.314674,27.485498 c -0.418237,0.41819 -0.418237,1.091523 0,1.509796 l 1.50981,1.50984 -1.50981,1.5098 c -0.418237,0.418234 -0.418237,1.091604 0,1.509757 0.4182,0.418313 1.09161,0.418313 1.50981,0 l 1.509846,-1.509757 1.509847,1.509757 c 0.418193,0.418313 1.09161,0.418313 1.50981,0 0.418237,-0.418153 0.418237,-1.091523 0,-1.509757 l -1.50981,-1.5098 1.50981,-1.50984 c 0.418237,-0.418273 0.418237,-1.091606 0,-1.509796 -0.4182,-0.418317 -1.091617,-0.418317 -1.50981,0 l -1.509847,1.509796 -1.509846,-1.509796 c -0.4182,-0.418317 -1.09161,-0.418317 -1.50981,0 z"
         enable-background="new"
         opacity="0.5"
         id="path58"
         style="stroke-width:4.03503" />
    </g>
    <g
       id="g62"
       transform="matrix(0.33333333,0,0,0.33333333,63.963684,14.20581)">
      <g
         id="g59">
        <rect
           style="fill:#bababa;fill-opacity:1;stroke-width:0.264583"
           id="rect37"
           width="60"
           height="40"
           x="68.227272"
           y="30.161362" />
        <rect
           style="fill:#cecece;fill-opacity:1;stroke-width:0.251005"
           id="rect38"
           width="60"
           height="36"
           x="68.227272"
           y="32.161362" />
      </g>
      <rect
         x="88.227272"
         y="47.661362"
         width="20"
         height="5"
         ry="2.499953"
         opacity="0.5"
         id="rect58"
         style="stroke-width:9.44872" />
    </g>
  </g>
</svg>
